<?xml version="1.0" encoding="UTF-8"?>
<svg version="1.1" xmlns="http://www.w3.org/2000/svg" width="16" height="16">
<path d="M0 0 C0 0.99 0 1.98 0 3 C1.32 3 2.64 3 4 3 C4 2.01 4 1.02 4 0 C5.65 0.33 7.3 0.66 9 1 C9.6875 3.8125 9.6875 3.8125 10 7 C8.75 8.875 8.75 8.875 7 10 C6.01 10 5.02 10 4 10 C4 9.01 4 8.02 4 7 C2.68 7 1.36 7 0 7 C0 7.99 0 8.98 0 10 C-1.65 9.67 -3.3 9.34 -5 9 C-5.6875 6.1875 -5.6875 6.1875 -6 3 C-4.11242974 0.16864461 -3.46862106 0 0 0 Z " fill="#C7C2C2" transform="translate(6,3)"/>
</svg>
