<?xml version="1.0" encoding="UTF-8"?>
<svg version="1.1" xmlns="http://www.w3.org/2000/svg" width="16" height="16">
<path d="M0 0 C0.721875 0.00257812 1.44375 0.00515625 2.1875 0.0078125 C2.909375 0.00523438 3.63125 0.00265625 4.375 0 C6.1875 0.1328125 6.1875 0.1328125 7.1875 1.1328125 C7.28623816 3.13080822 7.31721799 5.13238408 7.3125 7.1328125 C7.31507812 8.2259375 7.31765625 9.3190625 7.3203125 10.4453125 C7.1875 13.1328125 7.1875 13.1328125 6.1875 14.1328125 C4.375 14.265625 4.375 14.265625 2.1875 14.2578125 C1.465625 14.26039062 0.74375 14.26296875 0 14.265625 C-1.8125 14.1328125 -1.8125 14.1328125 -2.8125 13.1328125 C-2.91123816 11.13481678 -2.94221799 9.13324092 -2.9375 7.1328125 C-2.94007812 6.0396875 -2.94265625 4.9465625 -2.9453125 3.8203125 C-2.76653614 0.20272032 -2.76653614 0.20272032 0 0 Z M0.1875 2.1328125 C-0.1425 2.7928125 -0.4725 3.4528125 -0.8125 4.1328125 C1.1675 4.1328125 3.1475 4.1328125 5.1875 4.1328125 C4.8575 3.4728125 4.5275 2.8128125 4.1875 2.1328125 C2.8675 2.1328125 1.5475 2.1328125 0.1875 2.1328125 Z " fill="#C9C9C9" transform="translate(5.8125,0.8671875)"/>
</svg>
