<?xml version="1.0" encoding="UTF-8"?>
<svg version="1.1" xmlns="http://www.w3.org/2000/svg" width="16" height="16">
<path d="M0 0 C2.5 1.5 2.5 1.5 4 4 C4.791013 8.02098277 4.62153384 10.96411027 2.5 14.5 C-1.03588973 16.62153384 -3.97901723 16.791013 -8 16 C-10.5 14.5 -10.5 14.5 -12 12 C-12.791013 7.97901723 -12.62153384 5.03588973 -10.5 1.5 C-6.96411027 -0.62153384 -4.02098277 -0.791013 0 0 Z M-7 3 C-7.66 3.66 -8.32 4.32 -9 5 C-9 5.99 -9 6.98 -9 8 C-8.01 7.67 -7.02 7.34 -6 7 C-6.33 5.68 -6.66 4.36 -7 3 Z M-2 3 C-1.67 4.65 -1.34 6.3 -1 8 C-0.34 8 0.32 8 1 8 C0.65213292 6.02463255 0.65213292 6.02463255 0 4 C-0.66 3.67 -1.32 3.34 -2 3 Z M-6 11 C-6 11.66 -6 12.32 -6 13 C-4.68 13 -3.36 13 -2 13 C-2 12.34 -2 11.68 -2 11 C-3.32 11 -4.64 11 -6 11 Z " fill="#CACACA" transform="translate(12,0)"/>
</svg>
